<?xml version="1.0" encoding="utf-8"?>
<!-- Generator: Adobe Illustrator 21.0.0, SVG Export Plug-In . SVG Version: 6.00 Build 0)  -->
<svg version="1.1" id="Camada_1" xmlns="http://www.w3.org/2000/svg" xmlns:xlink="http://www.w3.org/1999/xlink" x="0px" y="0px"
	 viewBox="0 0 1300 1300" style="enable-background:new 0 0 1300 1300;" xml:space="preserve">
<style type="text/css">
	.st0{fill:url(#SVGID_1_);}
	.st1{fill:url(#SVGID_2_);}
	.st2{fill:url(#SVGID_3_);}
	.st3{fill:url(#SVGID_4_);}
	.st4{fill:url(#SVGID_5_);}
	.st5{fill:url(#SVGID_6_);}
	.st6{fill:url(#SVGID_7_);}
	.st7{fill:url(#SVGID_8_);}
	.st8{fill:url(#SVGID_9_);}
	.st9{fill:url(#SVGID_10_);}
	.st10{fill:#00386C;}
	.st11{fill:#FBB040;}
</style>
<g>
	<linearGradient id="SVGID_1_" gradientUnits="userSpaceOnUse" x1="621.0699" y1="746.7397" x2="621.0699" y2="231.3697">
		<stop  offset="0" style="stop-color:#00ABC5"/>
		<stop  offset="0.4388" style="stop-color:#00929E"/>
		<stop  offset="1" style="stop-color:#007B8D"/>
	</linearGradient>
	<path class="st0" d="M721.5,746.7c3.8-39.2-12.4-82.2-45.4-119.5c-0.8-0.9-1.5-1.7-2.3-2.6c-13.4-14.6-29.5-28.9-50.7-44.8
		c-11.7-8.8-24-17.4-35.8-25.7c-8.3-5.8-16.9-11.8-25.2-17.8c-35.3-25.6-74.1-57.7-94.1-101.9c-16.6-36.7-18.5-79.6-5.1-117.7
		c12.6-35.8,38.4-66.6,71.4-85.3c-0.8,5.3-0.9,10.7-0.3,16.2l-0.9-0.4l1.8,6.8c0.9,4.3,2.2,8.7,3.9,13.1
		c6.7,17.3,19.9,35.4,39.4,53.8c21,19.9,50.3,42.3,76.1,61.9c7.2,5.5,14.1,10.7,20.3,15.6c33.1,25.7,58,45.7,76.7,68.6
		c20.5,25.1,31.8,52.3,35.6,85.6c0,0.2,0.1,1,0.2,1.2c2.5,23.2,1.5,46.9-3,70.5C775,670.5,753,713.6,721.5,746.7z"/>
	<g>
		<linearGradient id="SVGID_2_" gradientUnits="userSpaceOnUse" x1="450.598" y1="427.2524" x2="791.5721" y2="427.2524">
			<stop  offset="0" style="stop-color:#007B8D"/>
			<stop  offset="0.5612" style="stop-color:#00929E"/>
			<stop  offset="1" style="stop-color:#00ABC5"/>
		</linearGradient>
		<path class="st1" d="M723.7,573.1c-114.8-110.9-168.2-262.6-182-307.2c-1.6-4.2-2.9-8.4-3.7-12.7c0-0.1,0-0.2,0-0.2s0,0,0,0
			c-1.8-9.1-1.7-18.5,0.9-27.9c0,0-120.7,130.6,82.3,357.3c0,0,0,0-0.1,0c18,13.5,35.1,27.8,50.3,44.4c0.8,0.8,1.5,1.7,2.3,2.5
			C681.9,603.4,700.4,585.4,723.7,573.1z"/>
		<linearGradient id="SVGID_3_" gradientUnits="userSpaceOnUse" x1="617.9699" y1="436.6993" x2="709.5566" y2="383.8217">
			<stop  offset="0" style="stop-color:#007B8D"/>
			<stop  offset="0.2004" style="stop-color:#008393"/>
			<stop  offset="0.4235" style="stop-color:#00929E"/>
			<stop  offset="1" style="stop-color:#00AAB5"/>
		</linearGradient>
		<path class="st2" d="M676.5,395.8c-28.6-22.2-69.4-51.9-96.2-77.3c-15.7-14.9-31-33-38.6-52.6c13.9,44.6,67.3,196.3,182,307.2
			c19.8-10.5,43-17,66.3-20.8C781.6,479.1,739.5,444.7,676.5,395.8z"/>
		<linearGradient id="SVGID_4_" gradientUnits="userSpaceOnUse" x1="479.0335" y1="461.9117" x2="626.3826" y2="376.8397">
			<stop  offset="0" style="stop-color:#007B8D"/>
			<stop  offset="0.3929" style="stop-color:#00929E"/>
			<stop  offset="1" style="stop-color:#6AC9C8"/>
		</linearGradient>
		<path class="st3" d="M538.8,225.1c-36.6,18.6-65.6,51.7-79.2,90.5c-13.6,38.7-11.7,82.7,5.3,120.1c19.5,43.1,56.9,75.5,95.2,103.3
			c20.2,14.6,41.1,28.5,61,43.5c0,0,0.1,0,0.1,0C418.1,355.7,538.8,225.1,538.8,225.1z"/>
		<linearGradient id="SVGID_5_" gradientUnits="userSpaceOnUse" x1="730.3606" y1="756.082" x2="730.3606" y2="573.0518">
			<stop  offset="0" style="stop-color:#B1DED3"/>
			<stop  offset="0.4388" style="stop-color:#00B3B5"/>
			<stop  offset="1" style="stop-color:#007B8D"/>
		</linearGradient>
		<path class="st4" d="M716.9,756.1c36.3-35,60.8-81.7,70.3-131.1c-23-15.7-44.1-33.2-63.4-51.9c-23.3,12.4-41.8,30.4-50.1,56.3
			C704.3,664.1,725.4,710.6,716.9,756.1z"/>
		<linearGradient id="SVGID_6_" gradientUnits="userSpaceOnUse" x1="757.6332" y1="624.9574" x2="757.6332" y2="552.2357">
			<stop  offset="0" style="stop-color:#00ABC5"/>
			<stop  offset="0.4388" style="stop-color:#00929E"/>
			<stop  offset="1" style="stop-color:#007B8D"/>
		</linearGradient>
		<path class="st5" d="M787.1,625c4.5-23.5,5.7-47.7,3.1-71.5c0-0.4-0.1-0.8-0.2-1.2c-23.3,3.8-46.5,10.3-66.3,20.8
			C743.1,591.8,764.2,609.3,787.1,625z"/>
	</g>
	<g>
		<linearGradient id="SVGID_7_" gradientUnits="userSpaceOnUse" x1="464.4881" y1="543.6576" x2="615.3874" y2="543.6576">
			<stop  offset="0" style="stop-color:#FFCB05"/>
			<stop  offset="0.6071" style="stop-color:#F37021"/>
			<stop  offset="1" style="stop-color:#F04E23"/>
		</linearGradient>
		<path class="st6" d="M615.4,601.1C569,566.9,524.9,546,476.2,486.2c-8.6,27.2-12.6,56.3-11.5,85
			C498.4,562.6,555.6,558.5,615.4,601.1z"/>
		<linearGradient id="SVGID_8_" gradientUnits="userSpaceOnUse" x1="464.6719" y1="723.9424" x2="695.426" y2="723.9424">
			<stop  offset="0" style="stop-color:#F04E23"/>
			<stop  offset="0.3929" style="stop-color:#F37021"/>
			<stop  offset="1" style="stop-color:#FBB040"/>
		</linearGradient>
		<path class="st7" d="M634.9,863.5c-0.7,6.5-2.3,12.8-5.4,18.7c25.1-30.7,47.8-64.3,59-102.3c11.2-38,9.6-81.2-11.4-114.8
			c-5.2-8.3-11.4-16.5-18.3-24.4c-3.6-4.1-7.2-8-10.9-11.7c-0.5-0.5-0.9-0.9-1.4-1.4c0,0-0.1-0.1-0.1-0.1
			c-9.1-9-18.8-17.3-28.4-24.5c-0.9-0.7-1.8-1.3-2.7-2c-59.8-42.6-117-38.6-150.7-30c0,0,0,0,0,0C639.3,714.3,642.5,822,634.9,863.5
			z"/>
		<linearGradient id="SVGID_9_" gradientUnits="userSpaceOnUse" x1="464.6721" y1="717.3414" x2="637.0781" y2="717.3414">
			<stop  offset="0" style="stop-color:#F04E23"/>
			<stop  offset="0.3929" style="stop-color:#F37021"/>
			<stop  offset="1" style="stop-color:#FFD400"/>
		</linearGradient>
		<path class="st8" d="M464.7,571.2L464.7,571.2c0,0,76.9,66.7,131.6,194c0,0,0,0,0,0c14.5,14,25.7,31.1,31.3,50
			c4.7,15.8,9,32.5,7.4,48.3C642.5,822,639.3,714.3,464.7,571.2z"/>
		<linearGradient id="SVGID_10_" gradientUnits="userSpaceOnUse" x1="530.4497" y1="765.1986" x2="530.4497" y2="571.1536">
			<stop  offset="0" style="stop-color:#F04E23"/>
			<stop  offset="0.3929" style="stop-color:#F37021"/>
			<stop  offset="1" style="stop-color:#FBB040"/>
		</linearGradient>
		<path class="st9" d="M464.7,571.2c1.9,49.9,19.3,98.4,54.6,133.1c16.5,16.2,52.4,39.9,70.2,54.8c2.3,2,4.6,4,6.8,6.1c0,0,0,0,0,0
			C541.6,637.9,464.7,571.2,464.7,571.2z"/>
	</g>
	<g>
		<path class="st10" d="M338.5,921.2c-2.4,0-4.4,2-4.4,4.4v54.1c0,2.4,2,4.4,4.4,4.4h67.4v9.1h-67.4c-7.5,0-13.5-6-13.5-13.5v-54.1
			c0-7.5,6-13.5,13.5-13.5h67.4v9.1H338.5z"/>
		<path class="st10" d="M484.9,912.1c7.5,0,13.5,6,13.5,13.5v54.1c0,7.5-6,13.5-13.5,13.5h-54.1c-7.5,0-13.5-6-13.5-13.5v-54.1
			c0-7.5,6-13.5,13.5-13.5H484.9z M484.9,984c2.4,0,4.4-2,4.4-4.4v-54.1c0-2.4-2-4.4-4.4-4.4h-54.1c-2.4,0-4.4,2-4.4,4.4v54.1
			c0,2.4,2,4.4,4.4,4.4H484.9z"/>
		<path class="st10" d="M590.7,912.1h12.5v81.1h-9.1v-70.7l-37.1,44l-37.1-44v70.7h-9.1v-81.1h12.5l33.7,40.1L590.7,912.1z"/>
		<path class="st10" d="M682.9,912.2c7.5,0,13.5,6.1,13.5,13.5v23.8c0,7.4-6,13.5-13.5,13.5h-54.1c-1,0-2.7-0.2-4.4-0.4v30.6h-9.1
			v-81H682.9z M687.3,925.7c0-2.4-2-4.4-4.4-4.4h-54.1c-2.4,0-4.4,2-4.4,4.4v23.8c0,2.4,2,4.3,4.4,4.3h54.1c2.4,0,4.4-1.9,4.4-4.3
			V925.7z"/>
		<path class="st10" d="M773.4,912.1c7.5,0,13.5,6,13.5,13.5v67.6h-9.1v-29.6h-62.9v29.6h-9.1v-67.6c0-7.5,6-13.5,13.5-13.5H773.4z
			 M777.8,954.4v-28.8c0-2.4-2-4.4-4.4-4.4h-54.1c-2.4,0-4.4,2-4.4,4.4v28.8H777.8z"/>
		<path class="st10" d="M871.7,912.1h9.1v81.1h-12.5l-59.5-70.7v70.7h-9.1v-81.1h12.5l59.5,70.7V912.1z"/>
		<path class="st10" d="M972.8,912.1l-37.3,50.6v30.5h-9.1v-30.5c-12.1-16.6-25-34-37.3-50.6h10.5l31.4,39.7
			c9.8-12.6,21.2-27,31.1-39.7H972.8z"/>
	</g>
	<g>
		<path class="st11" d="M366.5,1023.8v25.1c0,5-4,9-9,9h-34.9v-57.1h6.1v14.1h28.8C362.5,1014.9,366.5,1018.9,366.5,1023.8z
			 M360.4,1023.8c0-1.6-1.3-2.9-2.9-2.9h-25.8c-1.6,0-3,1.3-3,2.9v25.1c0,1.6,1.3,2.9,3,2.9h25.8c1.6,0,2.9-1.3,2.9-2.9V1023.8z"/>
		<path class="st11" d="M415.9,1014.9v34.1c0,5-4,9-9.1,9h-25.8c-5,0-9-4-9-9v-34.1h6.1v34.1c0,1.6,1.3,2.9,2.9,2.9h25.8
			c1.6,0,3-1.3,3-2.9v-34.1H415.9z"/>
		<path class="st11" d="M466,1024.4h-6.2v-0.6c0-1.6-1.3-2.9-2.9-2.9h-25.8c-1.6,0-2.9,1.3-2.9,2.9v6.6c0,1.6,1.3,2.9,2.9,2.9H457
			c5,0,9.1,4,9.1,9v6.6c0,5-4,9-9.1,9h-25.8c-5,0-9-4-9-9v-0.6h6.1v0.6c0,1.6,1.3,2.9,2.9,2.9H457c1.6,0,2.9-1.3,2.9-2.9v-6.6
			c0-1.6-1.3-2.9-2.9-2.9h-25.8c-5,0-9-4-9-9v-6.6c0-5,4-9,9-9H457c5,0,9.1,4,9.1,9V1024.4z"/>
		<path class="st11" d="M479.4,1000.8v6.1h-6.1v-6.1H479.4z M473.3,1014.9h6.1v43h-6.1V1014.9z"/>
		<path class="st11" d="M531.7,1023.8v34.1h-6.1v-34.1c0-1.6-1.3-2.9-2.9-2.9h-25.8c-1.6,0-3,1.3-3,2.9v34.1h-6.1v-43h34.9
			C527.7,1014.9,531.7,1018.9,531.7,1023.8z"/>
		<path class="st11" d="M583.1,1023.8v15.6h-37.8v9.5c0,1.6,1.3,2.9,2.9,2.9h34.9v6.1h-34.9c-5,0-9-4-9-9v-25.1c0-5,4-9,9-9H574
			C579.1,1014.9,583.1,1018.9,583.1,1023.8z M576.9,1033.3v-9.5c0-1.6-1.3-2.9-2.9-2.9h-25.8c-1.6,0-2.9,1.3-2.9,2.9v9.5H576.9z"/>
		<path class="st11" d="M634.2,1024.4H628v-0.6c0-1.6-1.3-2.9-2.9-2.9h-25.8c-1.6,0-2.9,1.3-2.9,2.9v6.6c0,1.6,1.3,2.9,2.9,2.9h25.8
			c5,0,9.1,4,9.1,9v6.6c0,5-4,9-9.1,9h-25.8c-5,0-9-4-9-9v-0.6h6.1v0.6c0,1.6,1.3,2.9,2.9,2.9h25.8c1.6,0,2.9-1.3,2.9-2.9v-6.6
			c0-1.6-1.3-2.9-2.9-2.9h-25.8c-5,0-9-4-9-9v-6.6c0-5,4-9,9-9h25.8c5,0,9.1,4,9.1,9V1024.4z"/>
		<path class="st11" d="M685.1,1024.4h-6.2v-0.6c0-1.6-1.3-2.9-2.9-2.9h-25.8c-1.6,0-2.9,1.3-2.9,2.9v6.6c0,1.6,1.3,2.9,2.9,2.9H676
			c5,0,9.1,4,9.1,9v6.6c0,5-4,9-9.1,9h-25.8c-5,0-9-4-9-9v-0.6h6.1v0.6c0,1.6,1.3,2.9,2.9,2.9H676c1.6,0,2.9-1.3,2.9-2.9v-6.6
			c0-1.6-1.3-2.9-2.9-2.9h-25.8c-5,0-9-4-9-9v-6.6c0-5,4-9,9-9H676c5,0,9.1,4,9.1,9V1024.4z"/>
		<path class="st11" d="M718.8,1020.9v28c0,1.6,1.3,2.9,2.9,2.9h15.7v6.1h-15.7c-5,0-9-4-9-9v-48.2h6.1v14.1h18.6v6.1H718.8z"/>
		<path class="st11" d="M786.9,1023.8v34.1H752c-5,0-9-4-9-9v-15.6h37.7v-9.5c0-1.6-1.3-2.9-2.9-2.9H743v-6.1h34.8
			C782.9,1014.9,786.9,1018.9,786.9,1023.8z M780.7,1039.4h-31.6v9.5c0,1.6,1.3,2.9,2.9,2.9h28.7V1039.4z"/>
		<path class="st11" d="M828.5,1074.9h-26.9v-6.2h26.9c1.6,0,2.9-1.3,2.9-2.9v-7.9h-28.7c-5,0-9-4-9-9v-25.1c0-5,4-9,9-9h25.8
			c5,0,9,4,9,9v42C837.5,1070.9,833.6,1074.9,828.5,1074.9z M828.5,1051.8c1.6,0,2.9-1.3,2.9-2.9v-25.1c0-1.6-1.3-2.9-2.9-2.9h-25.8
			c-1.6,0-2.9,1.3-2.9,2.9v25.1c0,1.6,1.3,2.9,2.9,2.9H828.5z"/>
		<path class="st11" d="M851.3,1000.8v48.2c0,1.6,1.3,2.9,2.9,2.9h7.3v6.1h-7.3c-5,0-9-4-9-9v-48.2H851.3z"/>
		<path class="st11" d="M873.7,1000.8v6.1h-6.1v-6.1H873.7z M867.6,1014.9h6.1v43h-6.1V1014.9z"/>
		<path class="st11" d="M925.9,1023.8v34.1h-6.1v-34.1c0-1.6-1.3-2.9-2.9-2.9h-25.8c-1.6,0-3,1.3-3,2.9v34.1h-6.1v-43h34.9
			C921.9,1014.9,925.9,1018.9,925.9,1023.8z"/>
		<path class="st11" d="M977.3,1023.8v15.6h-37.8v9.5c0,1.6,1.3,2.9,2.9,2.9h34.9v6.1h-34.9c-5,0-9-4-9-9v-25.1c0-5,4-9,9-9h25.8
			C973.3,1014.9,977.3,1018.9,977.3,1023.8z M971.2,1033.3v-9.5c0-1.6-1.3-2.9-2.9-2.9h-25.8c-1.6,0-2.9,1.3-2.9,2.9v9.5H971.2z"/>
	</g>
</g>
</svg>
